<svg width="8" height="13" viewBox="0 0 8 13" fill="none" xmlns="http://www.w3.org/2000/svg">
<path d="M7.05664 5.9977L1.51628 1.02438C1.35093 0.880891 1.14551 0.791812 0.9279 0.769215C0.710286 0.746619 0.490997 0.791597 0.299769 0.898054C0.224597 0.948409 0.162979 1.01655 0.120366 1.09644C0.0777531 1.17634 0.05546 1.26552 0.05546 1.3561C0.05546 1.44667 0.0777531 1.53586 0.120366 1.61575C0.162979 1.69564 0.224598 1.76378 0.299769 1.81414L5.3992 6.39059L0.298777 10.971C0.222725 11.0254 0.160736 11.0972 0.117968 11.1804C0.0751991 11.2636 0.0528869 11.3559 0.0528869 11.4495C0.0528869 11.543 0.0751991 11.6353 0.117968 11.7185C0.160737 11.8017 0.222725 11.8735 0.298777 11.9279C0.49323 12.0328 0.71591 12.0731 0.93472 12.0431C1.15353 12.013 1.35717 11.9142 1.51628 11.7608L7.05664 6.78746C7.11306 6.73835 7.15829 6.67768 7.18929 6.60956C7.22029 6.54144 7.23633 6.46744 7.23633 6.39258C7.23633 6.31771 7.22029 6.24372 7.18929 6.1756C7.15829 6.10748 7.11306 6.04681 7.05664 5.9977Z" fill="#5AD1DD"/>
</svg>
