<svg width="10" height="16" viewBox="0 0 10 16" fill="none" xmlns="http://www.w3.org/2000/svg">
<path d="M0.901018 8.53702L8.10102 14.987C8.31581 15.173 8.58258 15.2885 8.86519 15.3178C9.1478 15.3472 9.4326 15.2889 9.68102 15.151C9.77879 15.0858 9.85895 14.9975 9.91439 14.8939C9.96983 14.7902 9.99884 14.6745 9.99884 14.557C9.99884 14.4395 9.96983 14.3238 9.91439 14.2202C9.85895 14.1166 9.77879 14.0282 9.68102 13.963L3.05302 8.02502L9.67602 2.08602C9.77489 2.01554 9.85549 1.92246 9.9111 1.81453C9.96671 1.7066 9.99572 1.58694 9.99572 1.46552C9.99572 1.3441 9.96671 1.22444 9.9111 1.11651C9.85549 1.00858 9.77489 0.915495 9.67602 0.845019C9.42297 0.709721 9.13348 0.658313 8.84932 0.698214C8.56516 0.738116 8.30102 0.867262 8.09502 1.06702L0.895018 7.51702C0.822746 7.58108 0.764994 7.65984 0.725628 7.74803C0.686262 7.83622 0.666192 7.9318 0.66676 8.02838C0.667328 8.12496 0.688522 8.22029 0.728922 8.30801C0.769322 8.39574 0.827997 8.47381 0.901018 8.53702Z" fill="#5AD1DD"/>
</svg>
