<svg width="18" height="24" viewBox="0 0 18 24" fill="none" xmlns="http://www.w3.org/2000/svg">
<g clip-path="url(#clip0)">
<path d="M16.6645 5.34322L16.0111 4.96597L16.6938 3.78344C16.8125 3.57792 16.7462 3.31756 16.5459 3.2019L12.1705 0.675783C11.9702 0.560118 11.7116 0.632957 11.593 0.838479L10.9102 2.021L10.4632 1.76291C10.2629 1.64724 10.0043 1.72008 9.88563 1.9256L8.88053 3.6665C8.76187 3.87202 8.82808 4.13237 9.02841 4.24804L9.43573 4.4832L2.36331 16.733C1.4837 18.2565 1.97632 20.1936 3.46139 21.051C4.94645 21.9084 6.8703 21.3664 7.7499 19.8429L14.8223 7.59315L15.2296 7.82831C15.43 7.94398 15.6885 7.87114 15.8072 7.66562L16.8123 5.92473C16.931 5.71925 16.8648 5.45889 16.6645 5.34322ZM12.1036 1.62945L15.7535 3.73674L15.2856 4.54714L11.6357 2.43985L12.1036 1.62945ZM3.89111 20.3067C2.80603 19.6803 2.44613 18.265 3.08881 17.1519L7.42165 9.64716L11.3573 11.9194L7.0245 19.4241C6.38182 20.5373 4.97623 20.9332 3.89111 20.3067ZM11.787 11.1752L7.85134 8.90292L10.1612 4.90207L14.0969 7.17434L11.787 11.1752ZM15.2967 6.87469L9.82084 3.71322L10.3963 2.71657L15.8721 5.87804L15.2967 6.87469Z" fill="black"/>
</g>
<defs>
<clipPath id="clip0">
<rect width="8" height="22" fill="white" transform="translate(11) rotate(30)"/>
</clipPath>
</defs>
</svg>
