<svg width="124" height="129" viewBox="0 0 124 129" fill="none" xmlns="http://www.w3.org/2000/svg">
<g opacity="0.8">
<path fill-rule="evenodd" clip-rule="evenodd" d="M86.2671 85.6356C74.661 85.3513 62.9726 89.1868 51.2386 95.3679C39.0725 85.556 17.8138 83.3269 9.58264 88.2855L29.9429 61.4796C33.337 56.5197 35.313 50.7275 35.6578 44.7274C35.6673 44.4829 35.672 44.2412 35.672 44.0024V40.835L35.6862 34.3496V30.4573L35.7004 23.969V20.0767L35.726 9.04785H62.0798L62.1594 44.0024C62.3661 50.2561 64.3569 56.3203 67.897 61.4796L86.2671 85.6356Z" fill="#F9F7F8"/>
<path fill-rule="evenodd" clip-rule="evenodd" d="M1.08704 103.717C27.9071 107.397 41.4607 97.3913 51.2385 88.0116C39.0724 78.1996 17.8137 83.326 9.58257 88.2959L6.27307 92.6517C3.84297 95.9773 2.08171 99.7432 1.08704 103.74V103.717Z" fill="#90E6EF"/>
<path fill-rule="evenodd" clip-rule="evenodd" d="M15.5563 128.969H82.3093C84.5825 129.113 86.8575 128.717 88.9487 127.815C91.0399 126.912 92.8879 125.527 94.3419 123.774C100.014 114.784 96.0051 98.9556 91.8199 92.945L86.2671 85.6323C72.7391 77.8561 62.9726 81.8281 51.2387 88.0092C38.9076 94.506 24.4072 103.437 1.09285 103.715C-1.97213 115.472 0.970595 128.969 15.5563 128.969Z" fill="#5AD1DD"/>
<path fill-rule="evenodd" clip-rule="evenodd" d="M117.434 18.4463V67.2842C115.501 68.4411 113.29 69.052 111.037 69.052C108.784 69.052 106.573 68.4411 104.64 67.2842C102.707 66.1274 100.496 65.5165 98.2427 65.5165C95.9897 65.5165 93.7788 66.1274 91.8455 67.2842V18.4463H117.434Z" fill="#F9F7F8"/>
<path fill-rule="evenodd" clip-rule="evenodd" d="M91.8229 21.0449H117.966C119.458 20.9642 120.861 20.3149 121.888 19.2307C122.915 18.1465 123.488 16.7098 123.488 15.2163C123.488 13.7228 122.915 12.2861 121.888 11.2019C120.861 10.1177 119.458 9.46841 117.966 9.3877H91.294C89.8027 9.46841 88.399 10.1177 87.3719 11.2019C86.3448 12.2861 85.7723 13.7228 85.7723 15.2163C85.7723 16.7098 86.3448 18.1465 87.3719 19.2307C88.399 20.3149 89.8027 20.9642 91.294 21.0449H91.8229Z" fill="#D6F3F5"/>
<path fill-rule="evenodd" clip-rule="evenodd" d="M35.7545 11.6572H63.2939C64.8397 11.6572 66.3223 11.0431 67.4153 9.95004C68.5084 8.85696 69.1225 7.37443 69.1225 5.8286C69.1225 4.28276 68.5084 2.80023 67.4153 1.70716C66.3223 0.614082 64.8397 0 63.2939 0L34.5774 0C33.0315 0 31.549 0.614082 30.4559 1.70716C29.3629 2.80023 28.7488 4.28276 28.7488 5.8286C28.7488 7.37443 29.3629 8.85696 30.4559 9.95004C31.549 11.0431 33.0315 11.6572 34.5774 11.6572H35.7545Z" fill="#D6F3F5"/>
<path fill-rule="evenodd" clip-rule="evenodd" d="M43.7949 65.2115C43.7944 66.2279 44.0953 67.2216 44.6596 68.0669C45.2239 68.9122 46.0263 69.5712 46.9652 69.9604C47.9041 70.3496 48.9374 70.4516 49.9342 70.2535C50.9311 70.0553 51.8468 69.5659 52.5655 68.8472C53.2842 68.1285 53.7736 67.2129 53.9717 66.216C54.1699 65.2191 54.0679 64.1858 53.6787 63.2469C53.2895 62.308 52.6305 61.5056 51.7852 60.9413C50.9399 60.377 49.9462 60.0761 48.9298 60.0767C47.5684 60.0782 46.2632 60.6196 45.3006 61.5823C44.3379 62.5449 43.7964 63.8501 43.7949 65.2115Z" fill="#DEF6F8"/>
<path fill-rule="evenodd" clip-rule="evenodd" d="M61.244 109.919C61.2435 111.478 61.7052 113.002 62.5711 114.299C63.4369 115.595 64.6678 116.606 66.108 117.203C67.5483 117.8 69.1332 117.956 70.6623 117.652C72.1914 117.348 73.596 116.597 74.6984 115.495C75.8008 114.392 76.5515 112.988 76.8555 111.459C77.1595 109.93 77.0032 108.345 76.4063 106.904C75.8094 105.464 74.7988 104.233 73.5023 103.368C72.2057 102.502 70.6816 102.04 69.1226 102.041C67.0335 102.042 65.0304 102.873 63.5532 104.35C62.076 105.827 61.2455 107.83 61.244 109.919Z" fill="#A7EBF2"/>
<path fill-rule="evenodd" clip-rule="evenodd" d="M24.7001 119.127C25.6479 119.127 26.5743 118.845 27.3622 118.318C28.1501 117.791 28.7641 117.043 29.1265 116.167C29.489 115.291 29.5837 114.327 29.3986 113.398C29.2136 112.468 28.7571 111.614 28.0869 110.944C27.4166 110.274 26.5627 109.817 25.6331 109.632C24.7035 109.447 23.7399 109.542 22.8641 109.904C21.9883 110.267 21.2396 110.881 20.7126 111.669C20.1857 112.457 19.9041 113.383 19.9036 114.331C19.9036 115.603 20.4089 116.823 21.3084 117.722C22.2079 118.622 23.428 119.127 24.7001 119.127Z" fill="#A7EBF2"/>
<path fill-rule="evenodd" clip-rule="evenodd" d="M62.1936 44.0056L62.114 11.647H53.9767L54.0563 44.0056C54.2623 50.2595 56.2532 56.3238 59.7939 61.4829L75.0421 81.5731C79.0121 82.1889 82.8245 83.5707 86.2671 85.6417L67.9284 61.4743C64.3905 56.3173 62.4007 50.2562 62.1936 44.0056Z" fill="#DDDAEC"/>
<path fill-rule="evenodd" clip-rule="evenodd" d="M91.5953 92.6404L86.27 85.6375C82.8272 83.567 79.0149 82.1852 75.045 81.5688L78.1412 85.6375C86.0851 96.1119 88.0498 128.971 70.4645 128.971H82.3009C84.574 129.115 86.849 128.72 88.9402 127.817C91.0313 126.914 92.8794 125.53 94.3333 123.776C92.6952 121.576 91.8108 118.906 91.8114 116.162V92.9474L91.5953 92.6404Z" fill="#48BCC7"/>
<path fill-rule="evenodd" clip-rule="evenodd" d="M69.1197 5.81722C69.113 4.275 68.4968 2.798 67.4054 1.70827C66.3141 0.618543 64.8362 0.00448812 63.294 0L55.1823 0C56.7281 0.0030163 58.2094 0.619992 59.3004 1.7152C60.3913 2.8104 61.0025 4.29413 60.9995 5.83997C60.9965 7.38581 60.3795 8.86714 59.2843 9.95808C58.1891 11.049 56.7054 11.6602 55.1595 11.6572H63.294C64.8404 11.6534 66.3222 11.0365 67.4143 9.94169C68.5064 8.84689 69.1197 7.36362 69.1197 5.81722Z" fill="#7CDAE4"/>
<path fill-rule="evenodd" clip-rule="evenodd" d="M117.434 64.6964V21.0444H110.858V66.4535C113.175 66.5259 115.462 65.9148 117.434 64.6964Z" fill="#DDDAEC"/>
<path fill-rule="evenodd" clip-rule="evenodd" d="M123.368 15.2257C123.418 13.7386 122.878 12.2922 121.866 11.2012C120.854 10.1102 119.453 9.4628 117.966 9.3999H111.404C112.887 9.49438 114.278 10.1505 115.294 11.2346C116.31 12.3187 116.874 13.7494 116.873 15.2352C116.871 16.721 116.303 18.1502 115.284 19.2319C114.265 20.3135 112.873 20.9662 111.39 21.0571H117.966C119.454 20.9949 120.857 20.347 121.869 19.2546C122.881 18.1622 123.42 16.7139 123.368 15.2257Z" fill="#7CDAE4"/>
<path fill-rule="evenodd" clip-rule="evenodd" d="M91.8197 92.9497V116.165C91.8306 119.51 93.1464 122.718 95.4871 125.108C97.8278 127.497 101.009 128.879 104.353 128.959H104.896C108.239 128.876 111.417 127.493 113.757 125.104C116.097 122.715 117.414 119.508 117.429 116.165V64.7024C115.495 65.8589 113.284 66.4697 111.031 66.4697C108.778 66.4697 106.568 65.8589 104.634 64.7024C102.701 63.5458 100.49 62.9351 98.2369 62.9351C95.9839 62.9351 93.7731 63.5458 91.8397 64.7024V92.9639L91.8197 92.9497Z" fill="#EB5468"/>
<path fill-rule="evenodd" clip-rule="evenodd" d="M104.626 87.9603C105.533 87.9597 106.419 87.6902 107.173 87.1858C107.927 86.6814 108.514 85.9648 108.861 85.1266C109.208 84.2884 109.298 83.3662 109.12 82.4767C108.943 81.5872 108.506 80.7703 107.864 80.1293C107.222 79.4883 106.404 79.0521 105.515 78.8757C104.625 78.6993 103.703 78.7906 102.865 79.1382C102.027 79.4859 101.312 80.0742 100.808 80.8286C100.305 81.5831 100.036 82.47 100.037 83.377C100.037 83.9794 100.155 84.5758 100.386 85.1323C100.617 85.6887 100.955 86.1942 101.381 86.6199C101.807 87.0456 102.313 87.383 102.87 87.613C103.427 87.843 104.023 87.961 104.626 87.9603Z" fill="#F296A2"/>
<path fill-rule="evenodd" clip-rule="evenodd" d="M117.434 116.166V64.6807C115.463 65.9022 113.176 66.5163 110.858 66.4463V116.157C110.847 118.979 109.91 121.718 108.19 123.955C106.47 126.192 104.063 127.801 101.339 128.537C102.324 128.799 103.337 128.942 104.356 128.963H104.899C108.242 128.88 111.422 127.497 113.763 125.108C116.103 122.718 117.42 119.51 117.434 116.166Z" fill="#E5384F"/>
<path d="M39.067 107.056C38.6818 107.056 38.3053 106.941 37.9852 106.727C37.6651 106.512 37.4158 106.208 37.2688 105.852C37.1218 105.496 37.0837 105.104 37.1594 104.726C37.235 104.349 37.421 104.002 37.6937 103.73L37.7165 103.707C37.8951 103.515 38.1106 103.361 38.35 103.255C38.5895 103.148 38.8481 103.091 39.1102 103.087C39.3723 103.082 39.6325 103.131 39.8754 103.23C40.1182 103.329 40.3386 103.475 40.5234 103.661C40.7082 103.847 40.8535 104.068 40.9507 104.312C41.0479 104.555 41.095 104.816 41.0891 105.078C41.0832 105.34 41.0244 105.598 40.9164 105.837C40.8083 106.076 40.6531 106.29 40.4602 106.468L40.4374 106.491C40.0736 106.853 39.5807 107.057 39.067 107.056Z" fill="#A7EBF2"/>
<path d="M54.9549 100.832C54.57 100.832 54.1939 100.717 53.874 100.503C53.5541 100.289 53.3048 99.9851 53.1575 99.6295C53.0103 99.2739 52.9717 98.8826 53.0467 98.5051C53.1217 98.1275 53.3068 97.7807 53.5788 97.5084L53.6016 97.4856C53.9711 97.1438 54.4587 96.9583 54.9619 96.9681C55.4652 96.978 55.9452 97.1823 56.3011 97.5383C56.6571 97.8942 56.8614 98.3742 56.8712 98.8775C56.881 99.3808 56.6956 99.8683 56.3538 100.238L56.331 100.261C56.1506 100.442 55.9361 100.585 55.7 100.684C55.4638 100.782 55.2106 100.832 54.9549 100.832Z" fill="#A7EBF2"/>
<path d="M101.635 101.875C101.25 101.874 100.874 101.76 100.554 101.546C100.234 101.332 99.9847 101.028 99.8374 100.672C99.6902 100.316 99.6517 99.9251 99.7266 99.5475C99.8016 99.17 99.9868 98.8232 100.259 98.5508L100.281 98.5281C100.651 98.1863 101.139 98.0008 101.642 98.0106C102.145 98.0204 102.625 98.2247 102.981 98.5807C103.337 98.9366 103.541 99.4167 103.551 99.92C103.561 100.423 103.376 100.911 103.034 101.28L103.011 101.303C102.831 101.484 102.616 101.628 102.38 101.726C102.144 101.824 101.891 101.875 101.635 101.875Z" fill="#F296A2"/>
<path d="M105.769 116.742C105.383 116.741 105.007 116.627 104.687 116.412C104.367 116.198 104.118 115.894 103.971 115.537C103.824 115.181 103.785 114.79 103.861 114.412C103.937 114.034 104.123 113.687 104.395 113.415L104.418 113.393C104.597 113.201 104.812 113.047 105.052 112.94C105.291 112.834 105.55 112.777 105.812 112.772C106.074 112.768 106.334 112.817 106.577 112.915C106.82 113.014 107.04 113.161 107.225 113.347C107.41 113.533 107.555 113.754 107.652 113.997C107.75 114.241 107.797 114.501 107.791 114.763C107.785 115.026 107.726 115.284 107.618 115.523C107.51 115.761 107.355 115.976 107.162 116.153L107.139 116.176C106.775 116.539 106.282 116.742 105.769 116.742Z" fill="#F296A2"/>
<path d="M46.1606 22.0238C46.1606 22.5396 45.9557 23.0342 45.591 23.3989C45.2263 23.7636 44.7316 23.9685 44.2158 23.9685H35.7231V20.0762H44.2073C44.4636 20.0751 44.7177 20.1246 44.9548 20.222C45.1919 20.3194 45.4075 20.4628 45.589 20.6438C45.7705 20.8248 45.9145 21.0399 46.0126 21.2767C46.1107 21.5135 46.161 21.7674 46.1606 22.0238Z" fill="#2B4D66"/>
<path d="M46.1607 32.4125C46.1607 32.9283 45.9558 33.423 45.5911 33.7877C45.2264 34.1524 44.7317 34.3573 44.2159 34.3573H35.6863V30.4649H44.1961C44.4534 30.4623 44.7086 30.5108 44.947 30.6075C45.1855 30.7042 45.4023 30.8473 45.5851 31.0285C45.7678 31.2096 45.9128 31.4252 46.0116 31.6628C46.1104 31.9004 46.1611 32.1552 46.1607 32.4125Z" fill="#2B4D66"/>
<path d="M46.1608 42.7808C46.1612 43.0364 46.1112 43.2896 46.0136 43.5258C45.916 43.7621 45.7728 43.9768 45.5922 44.1577C45.4116 44.3386 45.1971 44.4821 44.9609 44.58C44.7248 44.6779 44.4717 44.7284 44.2161 44.7284H35.658C35.6674 44.4838 35.6722 44.2422 35.6722 44.0033V40.836H44.2018C44.4584 40.8341 44.7128 40.883 44.9504 40.9799C45.188 41.0768 45.4041 41.2198 45.5862 41.4005C45.7683 41.5813 45.9128 41.7963 46.0114 42.0332C46.1101 42.2701 46.1608 42.5242 46.1608 42.7808Z" fill="#2B4D66"/>
<path d="M102.22 31.4266C102.22 31.9422 102.014 32.4364 101.65 32.8009C101.285 33.1655 100.791 33.3706 100.276 33.3714H91.817V29.479H100.276C100.531 29.479 100.784 29.5294 101.021 29.6273C101.257 29.7252 101.471 29.8687 101.652 30.0496C101.832 30.2305 101.976 30.4452 102.073 30.6815C102.171 30.9178 102.221 31.171 102.22 31.4266Z" fill="#2B4D66"/>
<path d="M102.22 41.804C102.22 42.0594 102.17 42.3123 102.072 42.5483C101.975 42.7842 101.831 42.9986 101.651 43.1792C101.47 43.3598 101.256 43.503 101.02 43.6007C100.784 43.6985 100.531 43.7488 100.276 43.7488H91.817V39.8564H100.276C100.792 39.8572 101.286 40.0627 101.651 40.4279C102.016 40.793 102.22 41.288 102.22 41.804Z" fill="#2B4D66"/>
<path d="M102.22 52.1932C102.22 52.7088 102.014 53.203 101.65 53.5675C101.285 53.9321 100.791 54.1372 100.276 54.138H91.817V50.2456H100.276C100.792 50.2464 101.286 50.4519 101.651 50.8171C102.016 51.1822 102.22 51.6772 102.22 52.1932Z" fill="#2B4D66"/>
</g>
</svg>
