<svg width="129" height="129" viewBox="0 0 129 129" fill="none" xmlns="http://www.w3.org/2000/svg">
<g opacity="0.8">
<path d="M64.5 129C100.122 129 129 100.122 129 64.5C129 28.8776 100.122 0 64.5 0C28.8776 0 0 28.8776 0 64.5C0 100.122 28.8776 129 64.5 129Z" fill="#B9EFF4"/>
<path d="M129 64.5907C129.004 59.3045 128.358 54.038 127.078 48.9093L104.611 26.4424L24.6256 102.799L48.8615 127.035C58.3606 129.42 68.2784 129.609 77.8615 127.587C87.4445 125.565 96.4406 121.385 104.166 115.365C111.892 109.346 118.144 101.644 122.447 92.846C126.75 84.0479 128.991 74.3847 129 64.5907Z" fill="#7CDAE4"/>
<path d="M24.6256 26.4229H104.599V102.791H24.6256V26.4229Z" fill="white"/>
<path d="M64.6136 26.4258H104.602V102.793H64.6136V26.4258Z" fill="#E9EDF5"/>
<path d="M84.9508 55.5755H64.6111L59.6741 55.112L54.7712 55.5755H44.2714V53.016C44.2073 50.3052 44.6858 47.609 45.6789 45.0859C46.672 42.5627 48.1595 40.2636 50.054 38.3238C51.9486 36.3839 54.2118 34.8424 56.7108 33.7899C59.2097 32.7375 61.8939 32.1953 64.6054 32.1953C67.3169 32.1953 70.0011 32.7375 72.5 33.7899C74.999 34.8424 77.2622 36.3839 79.1568 38.3238C81.0513 40.2636 82.5389 42.5627 83.5319 45.0859C84.525 47.609 85.0035 50.3052 84.9394 53.016L84.9508 55.5755Z" fill="#FFCE00"/>
<path d="M84.9534 53.0071C84.9534 47.6127 82.8104 42.4393 78.996 38.6248C75.1815 34.8104 70.0081 32.6675 64.6136 32.6675V55.5752H84.9534V53.0071Z" fill="#FDBA12"/>
<path d="M52.2285 38.9219L54.7738 55.5759H64.6138L52.2285 38.9219Z" fill="#636978"/>
<path d="M52.2285 38.9219L59.8218 55.5759H64.6138L52.2285 38.9219Z" fill="#414952"/>
<path d="M73.6488 79.7689L68.3876 85.0302V68.4331H60.8398V85.0302L55.5786 79.7689L50.2434 85.1041L64.6137 99.4745L78.984 85.1041L73.6488 79.7689Z" fill="#EF7887"/>
<path d="M73.6488 79.7689L68.3875 85.0302V68.4331H64.6136V99.4745L78.984 85.1041L73.6488 79.7689Z" fill="#EA6174"/>
</g>
</svg>
