<svg width="118" height="129" viewBox="0 0 118 129" fill="none" xmlns="http://www.w3.org/2000/svg">
<g opacity="0.8">
<path d="M109.344 0.220215H35.1851C30.5767 0.220215 26.8408 3.95608 26.8408 8.56451V117.822C26.8408 122.43 30.5767 126.166 35.1851 126.166H109.344C113.952 126.166 117.688 122.43 117.688 117.822V8.56451C117.688 3.95608 113.952 0.220215 109.344 0.220215Z" fill="#31CAD0"/>
<path d="M35.0266 10.876H108.985V115.288H35.0266V10.876Z" fill="#D6F4F6"/>
<path d="M72.2642 51.8369C79.1062 51.8369 84.6527 45.8284 84.6527 38.4165C84.6527 31.0046 79.1062 24.9961 72.2642 24.9961C65.4223 24.9961 59.8757 31.0046 59.8757 38.4165C59.8757 45.8284 65.4223 51.8369 72.2642 51.8369Z" fill="#31CAD0"/>
<path d="M78.5309 36.9791H74.1808V32.6289H69.8306V36.9791H65.4805V41.3292H69.8306V45.6794H74.1808V41.3292H78.5309V36.9791Z" fill="#F7FDFD"/>
<path d="M54.6052 63.0835H87.2342V67.4336H54.6052V63.0835Z" fill="#31CAD0"/>
<path d="M91.5845 63.0835H102.46V67.4336H91.5845V63.0835Z" fill="#31CAD0"/>
<path d="M58.9553 84.8364H87.2341V89.1866H58.9553V84.8364Z" fill="#31CAD0"/>
<path d="M91.5845 84.8364H102.46V89.1866H91.5845V84.8364Z" fill="#31CAD0"/>
<path d="M54.6052 73.9595H67.6557V78.3096H54.6052V73.9595Z" fill="#31CAD0"/>
<path d="M72.0085 73.9595H102.462V78.3096H72.0085V73.9595Z" fill="#31CAD0"/>
<path d="M48.0771 0H95.9345V14.6832C95.9345 15.4046 95.6479 16.0965 95.1378 16.6067C94.6276 17.1168 93.9357 17.4034 93.2142 17.4034H50.7974C50.4402 17.4034 50.0864 17.3331 49.7564 17.1964C49.4263 17.0597 49.1265 16.8593 48.8739 16.6067C48.6213 16.3541 48.4209 16.0542 48.2842 15.7242C48.1475 15.3941 48.0771 15.0404 48.0771 14.6832V0Z" fill="#E4E1F0"/>
<path d="M54.6052 6.52588H58.9554V10.876H54.6052V6.52588Z" fill="#577286"/>
<path d="M85.0591 6.52588H89.4092V10.876H85.0591V6.52588Z" fill="#577286"/>
<path d="M63.3054 6.52588H80.7088V10.876H63.3054V6.52588Z" fill="#577286"/>
<path d="M72.0059 95.7124H102.46V100.063H72.0059V95.7124Z" fill="#31CAD0"/>
<path d="M45.3595 128.947H2.94266C2.58497 128.947 2.23078 128.876 1.90038 128.739C1.56998 128.602 1.26985 128.401 1.01718 128.148C0.764514 127.895 0.564264 127.594 0.427887 127.264C0.291509 126.933 0.221686 126.579 0.222418 126.221V81.0893L4.57258 76.7392V65.8638H43.7268V76.7392L48.077 81.0893V126.221C48.0777 126.578 48.008 126.932 47.8718 127.263C47.7356 127.593 47.5356 127.894 47.2832 128.147C47.0308 128.4 46.731 128.601 46.4009 128.738C46.0709 128.875 45.717 128.946 45.3595 128.947Z" fill="#EA6174"/>
<path d="M37.2017 98.4928H28.5013V89.7925H19.7982V98.4928H11.0979V107.193H19.7982V115.893H28.4985V107.193H37.1989L37.2017 98.4928Z" fill="#FFFCFC"/>
<path d="M4.57275 72.3896H35.0267V76.7398H4.57275V72.3896Z" fill="#CC432B"/>
<path d="M39.2293 50.4883H8.25807C3.69727 50.4883 0 54.1855 0 58.7464C0 63.3072 3.69727 67.0044 8.25807 67.0044H39.2293C43.7901 67.0044 47.4874 63.3072 47.4874 58.7464C47.4874 54.1855 43.7901 50.4883 39.2293 50.4883Z" fill="#E4E1F0"/>
<path d="M56.7802 128.947C64.192 128.947 70.2006 122.939 70.2006 115.527C70.2006 108.115 64.192 102.106 56.7802 102.106C49.3683 102.106 43.3597 108.115 43.3597 115.527C43.3597 122.939 49.3683 128.947 56.7802 128.947Z" fill="#F4ACB5"/>
<path d="M47.8323 106.395L62.1094 127.812C63.4412 127.214 64.6634 126.397 65.7252 125.395L51.4481 103.978C50.1163 104.576 48.8941 105.393 47.8323 106.395Z" fill="#577286"/>
</g>
</svg>
