<svg width="25" height="25" viewBox="0 0 25 25" fill="none" xmlns="http://www.w3.org/2000/svg">
<g clip-path="url(#clip0)">
<path d="M5.57395 15.666C6.30991 14.93 7.14764 14.3225 8.05872 13.864C8.50872 13.6429 8.81622 13.1254 8.81068 12.7103L9.14197 10.3383C11.5462 9.60758 13.477 9.60727 15.858 10.3377L16.1841 12.6444C16.1838 13.1586 16.4668 13.6263 16.9296 13.8679C17.8452 14.329 18.6829 14.9358 19.4192 15.6721C19.9511 16.204 20.8165 16.204 21.3484 15.6721L23.5559 13.4646C24.0878 12.9327 24.0878 12.0673 23.5559 11.5354C17.4594 5.43893 7.53992 5.43896 1.44342 11.5355C0.911565 12.0673 0.911565 12.9327 1.44342 13.4646L3.64483 15.666C4.17669 16.1978 5.04212 16.1978 5.57395 15.666Z" fill="white"/>
</g>
<defs>
<clipPath id="clip0">
<rect width="17" height="17" fill="white" transform="translate(24.5205 12.5) rotate(135)"/>
</clipPath>
</defs>
</svg>
