<svg width="14" height="14" viewBox="0 0 14 14" fill="none" xmlns="http://www.w3.org/2000/svg">
<path d="M14 0H0V14H14V0ZM5.6 5.6C5.6 4.82788 6.22788 4.2 7 4.2C7.77212 4.2 8.4 4.82788 8.4 5.6C8.4 6.37212 7.77212 7 7 7C6.22788 7 5.6 6.37212 5.6 5.6ZM7 8.4C8.92978 8.4 10.5 9.97021 10.5 11.9V12.6H3.5V11.9C3.5 9.97021 5.07021 8.4 7 8.4ZM12.6 12.6H11.9V11.9C11.9 9.93945 10.7393 8.24893 9.07197 7.46621C9.51938 6.96992 9.8 6.31948 9.8 5.6C9.8 4.05576 8.54424 2.8 7 2.8C5.45576 2.8 4.2 4.05576 4.2 5.6C4.2 6.31948 4.48062 6.96992 4.92803 7.46621C3.26074 8.24893 2.1 9.93945 2.1 11.9V12.6H1.4V1.4H12.6V12.6Z" fill="black"/>
</svg>
