<svg width="16" height="16" viewBox="0 0 16 16" fill="none" xmlns="http://www.w3.org/2000/svg">
<path d="M12.61 7.67429C12.4647 7.67429 12.3253 7.73202 12.2225 7.83479C12.1197 7.93756 12.062 8.07695 12.062 8.22229V13.7043C12.062 13.8496 12.0043 13.989 11.9015 14.0918C11.7987 14.1946 11.6593 14.2523 11.514 14.2523H1.645C1.49966 14.2523 1.36028 14.1946 1.25751 14.0918C1.15474 13.989 1.097 13.8496 1.097 13.7043V2.74029C1.097 2.59495 1.15474 2.45556 1.25751 2.35279C1.36028 2.25002 1.49966 2.19229 1.645 2.19229H8.224C8.36987 2.19229 8.50977 2.13434 8.61291 2.0312C8.71606 1.92805 8.774 1.78815 8.774 1.64228C8.774 1.49642 8.71606 1.35652 8.61291 1.25338C8.50977 1.15023 8.36987 1.09229 8.224 1.09229H1.645C1.42873 1.09228 1.21457 1.13494 1.01479 1.21779C0.815018 1.30065 0.633542 1.42209 0.48075 1.57516C0.327958 1.72823 0.206851 1.90992 0.124359 2.10985C0.0418664 2.30978 -0.000391691 2.52401 2.73581e-06 2.74029V13.7053C2.73581e-06 14.1416 0.173315 14.56 0.481812 14.8685C0.790309 15.177 1.20872 15.3503 1.645 15.3503H11.513C11.9493 15.3503 12.3677 15.177 12.6762 14.8685C12.9847 14.56 13.158 14.1416 13.158 13.7053V8.22229C13.158 8.07695 13.1003 7.93756 12.9975 7.83479C12.8947 7.73202 12.7553 7.67429 12.61 7.67429Z" fill="#5AD1DD"/>
<path d="M14.736 0.614152C14.3423 0.220891 13.8085 0 13.252 0C12.6955 0 12.1618 0.220891 11.768 0.614152L4.54604 7.83515C4.48622 7.89543 4.44105 7.96865 4.41403 8.04915L3.31404 11.3382C3.28663 11.4205 3.27919 11.5082 3.29231 11.594C3.30544 11.6798 3.33877 11.7613 3.38955 11.8317C3.44033 11.9021 3.5071 11.9595 3.58438 11.999C3.66166 12.0385 3.74723 12.0592 3.83404 12.0592C3.89282 12.059 3.95121 12.0496 4.00704 12.0312L7.29604 10.9312C7.37673 10.904 7.45 10.8585 7.51003 10.7982L14.731 3.57715C15.1234 3.18427 15.3443 2.65196 15.3452 2.09668C15.3461 1.54141 15.1271 1.00836 14.736 0.614152ZM13.961 2.80715L6.83404 9.93415L4.70503 10.6452L5.41403 8.51815L12.544 1.39115C12.637 1.29804 12.7474 1.22416 12.8689 1.17372C12.9905 1.12328 13.1207 1.09727 13.2523 1.09718C13.3839 1.09709 13.5142 1.12291 13.6358 1.17318C13.7574 1.22345 13.8679 1.29718 13.961 1.39015C14.0541 1.48313 14.128 1.59353 14.1785 1.71506C14.2289 1.83659 14.2549 1.96686 14.255 2.09844C14.2551 2.23003 14.2293 2.36034 14.179 2.48194C14.1287 2.60354 14.055 2.71404 13.962 2.80715H13.961Z" fill="#5AD1DD"/>
</svg>
