<svg width="20" height="10" viewBox="0 0 20 10" fill="none" xmlns="http://www.w3.org/2000/svg">
<path opacity="0.676" d="M18.815 4.86464L15.138 1.20464C15.0054 1.07296 14.8259 0.999348 14.639 1C14.4521 1.00066 14.2732 1.07553 14.1415 1.20813C14.0098 1.34074 13.9362 1.52023 13.9369 1.70711C13.9375 1.89399 14.0124 2.07296 14.145 2.20464L16.614 4.66164H1.704C1.51729 4.66164 1.33822 4.73581 1.2062 4.86783C1.07417 4.99986 1 5.17892 1 5.36564C1 5.55235 1.07417 5.73141 1.2062 5.86344C1.33822 5.99546 1.51729 6.06965 1.704 6.06965H16.604L14.135 8.52663C14.0024 8.65831 13.9275 8.83728 13.9269 9.02416C13.9262 9.21104 13.9998 9.39053 14.1315 9.52314C14.2632 9.65575 14.4421 9.73061 14.629 9.73127C14.8159 9.73192 14.9954 9.65831 15.128 9.52663L18.805 5.86664C18.8725 5.8021 18.9264 5.72471 18.9635 5.63903C19.0006 5.55335 19.0202 5.46111 19.0211 5.36774C19.0221 5.27437 19.0043 5.18176 18.9689 5.09536C18.9335 5.00895 18.8812 4.93052 18.815 4.86464Z" fill="#C3C3C3" stroke="white" stroke-width="0.4"/>
</svg>
