<svg width="189" height="18" viewBox="0 0 189 18" fill="none" xmlns="http://www.w3.org/2000/svg">
<path d="M14.3633 0.746094L13.1562 13.9648C13.0938 14.582 13.0625 14.9883 13.0625 15.1836C13.0625 15.4961 13.1211 15.7344 13.2383 15.8984C13.3867 16.125 13.5859 16.293 13.8359 16.4023C14.0938 16.5117 14.5234 16.5664 15.125 16.5664L14.9961 17H8.73828L8.86719 16.5664H9.13672C9.64453 16.5664 10.0586 16.457 10.3789 16.2383C10.6055 16.0898 10.7812 15.8438 10.9062 15.5C10.9922 15.2578 11.0742 14.6875 11.1523 13.7891L11.3398 11.7734H6.79297L5.17578 13.9648C4.80859 14.457 4.57812 14.8125 4.48438 15.0312C4.39062 15.2422 4.34375 15.4414 4.34375 15.6289C4.34375 15.8789 4.44531 16.0938 4.64844 16.2734C4.85156 16.4531 5.1875 16.5508 5.65625 16.5664L5.52734 17H0.828125L0.957031 16.5664C1.53516 16.543 2.04297 16.3516 2.48047 15.9922C2.92578 15.625 3.58594 14.8477 4.46094 13.6602L13.9531 0.746094H14.3633ZM12.043 4.64844L7.4375 10.918H11.4336L12.043 4.64844ZM23.5508 1.10938L28.4609 13.5664L31.1211 4.26172C31.3398 3.49609 31.4492 2.90234 31.4492 2.48047C31.4492 2.19141 31.3477 1.96484 31.1445 1.80078C30.9414 1.63672 30.5625 1.55469 30.0078 1.55469C29.9141 1.55469 29.8164 1.55078 29.7148 1.54297L29.8438 1.10938H34.9531L34.8125 1.54297C34.2812 1.53516 33.8867 1.58984 33.6289 1.70703C33.2617 1.87109 32.9883 2.08203 32.8086 2.33984C32.5586 2.70703 32.3047 3.34766 32.0469 4.26172L28.3086 17.3633H27.8867L22.6016 3.95703L19.7773 13.8594C19.5664 14.6094 19.4609 15.1836 19.4609 15.582C19.4609 15.8789 19.5547 16.1055 19.7422 16.2617C19.9375 16.4102 20.3945 16.5117 21.1133 16.5664L20.9961 17H16.0039L16.168 16.5664C16.793 16.5508 17.2109 16.4961 17.4219 16.4023C17.7422 16.2617 17.9805 16.0781 18.1367 15.8516C18.3633 15.5078 18.6172 14.8438 18.8984 13.8594L22.0508 2.80859C21.7461 2.33984 21.418 2.01953 21.0664 1.84766C20.7227 1.66797 20.1836 1.56641 19.4492 1.54297L19.5781 1.10938H23.5508ZM36.1953 1.10938H48.2656L46.9648 5.32812H46.5195C46.668 4.71094 46.7422 4.16016 46.7422 3.67578C46.7422 3.10547 46.5664 2.67578 46.2148 2.38672C45.9492 2.16797 45.2656 2.05859 44.1641 2.05859H42.9102L39.7695 13.0039C39.3711 14.3789 39.1719 15.2266 39.1719 15.5469C39.1719 15.8438 39.2969 16.0898 39.5469 16.2852C39.7969 16.4727 40.2383 16.5664 40.8711 16.5664H41.4102L41.2695 17H34.3555L34.4844 16.5664H34.7891C35.3984 16.5664 35.8672 16.4688 36.1953 16.2734C36.4219 16.1406 36.625 15.9023 36.8047 15.5586C36.9922 15.207 37.25 14.4688 37.5781 13.3438L40.8711 2.05859H39.9219C39.0078 2.05859 38.2695 2.17578 37.707 2.41016C37.1523 2.64453 36.7031 2.98438 36.3594 3.42969C36.0156 3.875 35.7344 4.50781 35.5156 5.32812H35.082L36.1953 1.10938ZM56.6211 0.746094L55.4141 13.9648C55.3516 14.582 55.3203 14.9883 55.3203 15.1836C55.3203 15.4961 55.3789 15.7344 55.4961 15.8984C55.6445 16.125 55.8438 16.293 56.0938 16.4023C56.3516 16.5117 56.7812 16.5664 57.3828 16.5664L57.2539 17H50.9961L51.125 16.5664H51.3945C51.9023 16.5664 52.3164 16.457 52.6367 16.2383C52.8633 16.0898 53.0391 15.8438 53.1641 15.5C53.25 15.2578 53.332 14.6875 53.4102 13.7891L53.5977 11.7734H49.0508L47.4336 13.9648C47.0664 14.457 46.8359 14.8125 46.7422 15.0312C46.6484 15.2422 46.6016 15.4414 46.6016 15.6289C46.6016 15.8789 46.7031 16.0938 46.9062 16.2734C47.1094 16.4531 47.4453 16.5508 47.9141 16.5664L47.7852 17H43.0859L43.2148 16.5664C43.793 16.543 44.3008 16.3516 44.7383 15.9922C45.1836 15.625 45.8438 14.8477 46.7188 13.6602L56.2109 0.746094H56.6211ZM54.3008 4.64844L49.6953 10.918H53.6914L54.3008 4.64844ZM68.9023 17L66.3594 9.27734C65.7656 9.28516 65.1562 9.22656 64.5312 9.10156L63.1602 13.9062C62.9805 14.5312 62.8906 15.0586 62.8906 15.4883C62.8906 15.8164 63.0039 16.0742 63.2305 16.2617C63.4023 16.4023 63.8711 16.5039 64.6367 16.5664L64.5312 17H58.3789L58.5078 16.5664C59.0859 16.543 59.4766 16.4844 59.6797 16.3906C60 16.2578 60.2344 16.0781 60.3828 15.8516C60.6328 15.4844 60.8945 14.8359 61.168 13.9062L63.9453 4.30859C64.1328 3.66797 64.2266 3.17188 64.2266 2.82031C64.2266 2.46094 64.0781 2.15625 63.7812 1.90625C63.4922 1.65625 63.0742 1.53516 62.5273 1.54297L62.668 1.10938H67.8477C69.582 1.10938 70.832 1.4375 71.5977 2.09375C72.3633 2.75 72.7461 3.61328 72.7461 4.68359C72.7461 5.70703 72.3516 6.64453 71.5625 7.49609C70.7812 8.33984 69.707 8.875 68.3398 9.10156L69.8867 13.7539C70.2617 14.8945 70.6367 15.6367 71.0117 15.9805C71.3867 16.3242 71.9922 16.5195 72.8281 16.5664L72.6992 17H68.9023ZM64.7305 8.43359C65.2305 8.50391 65.6758 8.53906 66.0664 8.53906C67.4102 8.53906 68.4727 8.16797 69.2539 7.42578C70.0352 6.67578 70.4258 5.74609 70.4258 4.63672C70.4258 3.76953 70.1797 3.10547 69.6875 2.64453C69.2031 2.18359 68.4727 1.95312 67.4961 1.95312C67.2461 1.95312 66.9492 1.98438 66.6055 2.04688L64.7305 8.43359Z" fill="white"/>
<path d="M89.4219 17L83.2812 3.62891V14.2461C83.2812 15.2227 83.3867 15.832 83.5977 16.0742C83.8867 16.4023 84.3438 16.5664 84.9688 16.5664H85.5312V17H80V16.5664H80.5625C81.2344 16.5664 81.7109 16.3633 81.9922 15.957C82.1641 15.707 82.25 15.1367 82.25 14.2461V3.86328C82.25 3.16016 82.1719 2.65234 82.0156 2.33984C81.9062 2.11328 81.7031 1.92578 81.4062 1.77734C81.1172 1.62109 80.6484 1.54297 80 1.54297V1.10938H84.5L90.2656 13.543L95.9375 1.10938H100.438V1.54297H99.8867C99.207 1.54297 98.7266 1.74609 98.4453 2.15234C98.2734 2.40234 98.1875 2.97266 98.1875 3.86328V14.2461C98.1875 15.2227 98.2969 15.832 98.5156 16.0742C98.8047 16.4023 99.2617 16.5664 99.8867 16.5664H100.438V17H93.6875V16.5664H94.25C94.9297 16.5664 95.4062 16.3633 95.6797 15.957C95.8516 15.707 95.9375 15.1367 95.9375 14.2461V3.62891L89.8086 17H89.4219ZM105.969 1.97656V8.25781H109.461C110.367 8.25781 110.973 8.12109 111.277 7.84766C111.684 7.48828 111.91 6.85547 111.957 5.94922H112.391V11.4805H111.957C111.848 10.707 111.738 10.2109 111.629 9.99219C111.488 9.71875 111.258 9.50391 110.938 9.34766C110.617 9.19141 110.125 9.11328 109.461 9.11328H105.969V14.3516C105.969 15.0547 106 15.4844 106.062 15.6406C106.125 15.7891 106.234 15.9102 106.391 16.0039C106.547 16.0898 106.844 16.1328 107.281 16.1328H109.977C110.875 16.1328 111.527 16.0703 111.934 15.9453C112.34 15.8203 112.73 15.5742 113.105 15.207C113.59 14.7227 114.086 13.9922 114.594 13.0156H115.062L113.691 17H101.445V16.5664H102.008C102.383 16.5664 102.738 16.4766 103.074 16.2969C103.324 16.1719 103.492 15.9844 103.578 15.7344C103.672 15.4844 103.719 14.9727 103.719 14.1992V3.875C103.719 2.86719 103.617 2.24609 103.414 2.01172C103.133 1.69922 102.664 1.54297 102.008 1.54297H101.445V1.10938H113.691L113.867 4.58984H113.41C113.246 3.75391 113.062 3.17969 112.859 2.86719C112.664 2.55469 112.371 2.31641 111.98 2.15234C111.668 2.03516 111.117 1.97656 110.328 1.97656H105.969ZM116.035 17V16.5664H116.633C117.305 16.5664 117.781 16.3516 118.062 15.9219C118.234 15.6641 118.32 15.0859 118.32 14.1875V3.92188C118.32 2.92969 118.211 2.30859 117.992 2.05859C117.688 1.71484 117.234 1.54297 116.633 1.54297H116.035V1.10938H122.504C124.879 1.10938 126.684 1.37891 127.918 1.91797C129.16 2.45703 130.156 3.35547 130.906 4.61328C131.664 5.87109 132.043 7.32422 132.043 8.97266C132.043 11.1836 131.371 13.0312 130.027 14.5156C128.52 16.1719 126.223 17 123.137 17H116.035ZM120.57 15.8516C121.562 16.0703 122.395 16.1797 123.066 16.1797C124.879 16.1797 126.383 15.543 127.578 14.2695C128.773 12.9961 129.371 11.2695 129.371 9.08984C129.371 6.89453 128.773 5.16406 127.578 3.89844C126.383 2.63281 124.848 2 122.973 2C122.27 2 121.469 2.11328 120.57 2.33984V15.8516ZM140.375 16.5664V17H133.566V16.5664H134.129C134.785 16.5664 135.262 16.375 135.559 15.9922C135.746 15.7422 135.84 15.1406 135.84 14.1875V3.92188C135.84 3.11719 135.789 2.58594 135.688 2.32812C135.609 2.13281 135.449 1.96484 135.207 1.82422C134.863 1.63672 134.504 1.54297 134.129 1.54297H133.566V1.10938H140.375V1.54297H139.801C139.152 1.54297 138.68 1.73437 138.383 2.11719C138.188 2.36719 138.09 2.96875 138.09 3.92188V14.1875C138.09 14.9922 138.141 15.5234 138.242 15.7812C138.32 15.9766 138.484 16.1445 138.734 16.2852C139.07 16.4727 139.426 16.5664 139.801 16.5664H140.375ZM155.41 0.746094L155.773 6.14844H155.41C154.926 4.53125 154.234 3.36719 153.336 2.65625C152.438 1.94531 151.359 1.58984 150.102 1.58984C149.047 1.58984 148.094 1.85938 147.242 2.39844C146.391 2.92969 145.719 3.78125 145.227 4.95312C144.742 6.125 144.5 7.58203 144.5 9.32422C144.5 10.7617 144.73 12.0078 145.191 13.0625C145.652 14.1172 146.344 14.9258 147.266 15.4883C148.195 16.0508 149.254 16.332 150.441 16.332C151.473 16.332 152.383 16.1133 153.172 15.6758C153.961 15.2305 154.828 14.3516 155.773 13.0391L156.137 13.2734C155.34 14.6875 154.41 15.7227 153.348 16.3789C152.285 17.0352 151.023 17.3633 149.562 17.3633C146.93 17.3633 144.891 16.3867 143.445 14.4336C142.367 12.9805 141.828 11.2695 141.828 9.30078C141.828 7.71484 142.184 6.25781 142.895 4.92969C143.605 3.60156 144.582 2.57422 145.824 1.84766C147.074 1.11328 148.438 0.746094 149.914 0.746094C151.062 0.746094 152.195 1.02734 153.312 1.58984C153.641 1.76172 153.875 1.84766 154.016 1.84766C154.227 1.84766 154.41 1.77344 154.566 1.625C154.77 1.41406 154.914 1.12109 155 0.746094H155.41ZM167.949 11.6797H161.797L160.719 14.1875C160.453 14.8047 160.32 15.2656 160.32 15.5703C160.32 15.8125 160.434 16.0273 160.66 16.2148C160.895 16.3945 161.395 16.5117 162.16 16.5664V17H157.156V16.5664C157.82 16.4492 158.25 16.2969 158.445 16.1094C158.844 15.7344 159.285 14.9727 159.77 13.8242L165.359 0.746094H165.77L171.301 13.9648C171.746 15.0273 172.148 15.7188 172.508 16.0391C172.875 16.3516 173.383 16.5273 174.031 16.5664V17H167.762V16.5664C168.395 16.5352 168.82 16.4297 169.039 16.25C169.266 16.0703 169.379 15.8516 169.379 15.5938C169.379 15.25 169.223 14.707 168.91 13.9648L167.949 11.6797ZM167.621 10.8125L164.926 4.39062L162.16 10.8125H167.621ZM188.07 12.6055L188.457 12.6875L187.098 17H174.793V16.5664H175.391C176.062 16.5664 176.543 16.3477 176.832 15.9102C176.996 15.6602 177.078 15.082 177.078 14.1758V3.92188C177.078 2.92969 176.969 2.30859 176.75 2.05859C176.445 1.71484 175.992 1.54297 175.391 1.54297H174.793V1.10938H181.988V1.54297C181.145 1.53516 180.551 1.61328 180.207 1.77734C179.871 1.94141 179.641 2.14844 179.516 2.39844C179.391 2.64844 179.328 3.24609 179.328 4.19141V14.1758C179.328 14.8242 179.391 15.2695 179.516 15.5117C179.609 15.6758 179.754 15.7969 179.949 15.875C180.145 15.9531 180.754 15.9922 181.777 15.9922H182.938C184.156 15.9922 185.012 15.9023 185.504 15.7227C185.996 15.543 186.445 15.2266 186.852 14.7734C187.258 14.3125 187.664 13.5898 188.07 12.6055Z" fill="#1F1F1F"/>
</svg>
