<svg width="19" height="24" viewBox="0 0 19 24" fill="none" xmlns="http://www.w3.org/2000/svg">
<path d="M4.138 8.23466L4.71651 8.62344C4.77261 8.66113 4.83623 8.6796 4.89953 8.6796C4.98166 8.6796 5.06329 8.64847 5.12722 8.58777L6.49819 7.28563C6.63596 7.15476 6.64578 6.93238 6.52007 6.78894C6.39437 6.64546 6.18082 6.63533 6.04305 6.76616L4.86424 7.88582L4.50427 7.6439C4.34759 7.53866 4.13859 7.58549 4.03742 7.74861C3.93625 7.91174 3.98132 8.12933 4.138 8.23466Z" fill="black"/>
<path d="M7.70621 8.0285H12.5015C12.688 8.0285 12.8391 7.87114 12.8391 7.67694C12.8391 7.48274 12.688 7.32538 12.5015 7.32538H7.70621C7.51972 7.32538 7.36853 7.48274 7.36853 7.67694C7.36853 7.87114 7.51972 8.0285 7.70621 8.0285Z" fill="black"/>
<path d="M7.70621 11.164H12.5015C12.688 11.164 12.8391 11.0067 12.8391 10.8125C12.8391 10.6183 12.688 10.4609 12.5015 10.4609H7.70621C7.51972 10.4609 7.36853 10.6183 7.36853 10.8125C7.36853 11.0067 7.51972 11.164 7.70621 11.164Z" fill="black"/>
<path d="M7.70621 14.2996H11.6229C11.8094 14.2996 11.9606 14.1422 11.9606 13.948C11.9606 13.7538 11.8094 13.5965 11.6229 13.5965H7.70621C7.51972 13.5965 7.36853 13.7538 7.36853 13.948C7.36853 14.1422 7.51972 14.2996 7.70621 14.2996Z" fill="black"/>
<path d="M7.70621 17.4364H9.17975C9.36624 17.4364 9.51743 17.2791 9.51743 17.0849C9.51743 16.8907 9.36624 16.7333 9.17975 16.7333H7.70621C7.51972 16.7333 7.36853 16.8907 7.36853 17.0849C7.36853 17.2791 7.51972 17.4364 7.70621 17.4364Z" fill="black"/>
<path d="M6.04307 9.65917L4.86395 10.7792L4.50385 10.5379C4.34698 10.4329 4.13803 10.4801 4.03713 10.6434C3.93623 10.8067 3.98157 11.0242 4.13843 11.1293L4.71694 11.5168C4.77295 11.5543 4.83639 11.5726 4.89956 11.5726C4.98168 11.5726 5.06331 11.5415 5.12724 11.4808L6.49822 10.1786C6.63599 10.0478 6.6458 9.82539 6.5201 9.68195C6.39444 9.53847 6.18084 9.52834 6.04307 9.65917Z" fill="black"/>
<path d="M4.138 14.022L4.71651 14.4108C4.77261 14.4485 4.83623 14.4669 4.89953 14.4669C4.98166 14.4669 5.06329 14.4358 5.12722 14.3751L6.49819 13.073C6.63596 12.9421 6.64578 12.7197 6.52007 12.5763C6.39437 12.4328 6.18082 12.4227 6.04305 12.5535L4.86424 13.6732L4.50427 13.4312C4.34759 13.326 4.13859 13.3728 4.03742 13.536C3.93625 13.6991 3.98132 13.9167 4.138 14.022Z" fill="black"/>
<path d="M4.13797 16.9149L4.71648 17.3038C4.77258 17.3415 4.8362 17.36 4.89955 17.36C4.98167 17.36 5.0633 17.3289 5.12723 17.2681L6.4982 15.966C6.63597 15.8351 6.64579 15.6127 6.52008 15.4693C6.39442 15.3258 6.18078 15.3157 6.04306 15.4465L4.86425 16.5662L4.50428 16.3243C4.3476 16.2189 4.13856 16.2657 4.03743 16.4289C3.93626 16.592 3.98129 16.8096 4.13797 16.9149Z" fill="black"/>
<path d="M16.4385 18.1382H15.6887V17.3577C15.6887 17.0838 15.4748 16.8611 15.2118 16.8611H13.8244C13.5614 16.8611 13.3474 17.0838 13.3474 17.3577V18.1382H12.5977C12.334 18.1382 12.1195 18.3616 12.1195 18.6361V20.0793C12.1195 20.3538 12.334 20.5771 12.5977 20.5771H13.3474V21.3577C13.3474 21.6316 13.5614 21.8543 13.8244 21.8543H15.2118C15.4748 21.8543 15.6887 21.6316 15.6887 21.3577V20.5771H16.4385C16.7021 20.5771 16.9166 20.3538 16.9166 20.0793V18.6361C16.9167 18.3616 16.7022 18.1382 16.4385 18.1382ZM16.2413 19.874H15.5498C15.2541 19.874 15.0134 20.124 15.0134 20.4312V21.1512H14.0228V20.4312C14.0228 20.124 13.7822 19.874 13.4864 19.874H12.7949V18.8414H13.4864C13.7821 18.8414 14.0228 18.5914 14.0228 18.2842V17.5642H15.0134V18.2842C15.0134 18.5914 15.254 18.8414 15.5498 18.8414H16.2413V19.874H16.2413Z" fill="black"/>
<path d="M17.1255 15.5939V10.4395C17.1255 10.2453 16.9743 10.0879 16.7878 10.0879C16.6013 10.0879 16.4501 10.2453 16.4501 10.4395V15.174C16.1025 14.9993 15.7297 14.8706 15.3393 14.7946V4.32136C15.3393 4.00247 15.0896 3.74306 14.7826 3.74306H12.7784V2.58656H16.1219C16.3029 2.58656 16.4501 2.73928 16.4501 2.92697V8.82891C16.4501 9.02311 16.6013 9.18047 16.7878 9.18047C16.9743 9.18047 17.1255 9.02311 17.1255 8.82891V2.92692C17.1255 2.35153 16.6753 1.88339 16.1219 1.88339H12.7427C12.6616 1.65234 12.4494 1.48664 12.2002 1.48664H11.0114C10.8865 1.25466 10.7315 1.04161 10.5489 0.851578C10.0215 0.302437 9.3199 0 8.57336 0C7.82624 0 7.125 0.302531 6.59903 0.851578C6.41565 1.0425 6.26041 1.25512 6.13555 1.48669H4.94778C4.69804 1.48669 4.48535 1.65234 4.40408 1.88344H1.02473C0.472068 1.88344 0.0224609 2.35153 0.0224609 2.92697V21.5661C0.0224609 22.1414 0.472068 22.6095 1.02473 22.6095H11.3389C12.1485 23.4671 13.2746 24 14.5181 24C16.977 24 18.9775 21.9172 18.9775 19.357C18.9775 17.8102 18.2466 16.4378 17.1255 15.5939ZM5.04368 2.18981H6.29345L6.30475 2.19009C6.46616 2.19422 6.59381 2.11294 6.66134 1.95778L6.66476 1.95C6.76692 1.72922 6.90551 1.52695 7.07691 1.34845C7.47555 0.932344 8.00697 0.703125 8.57336 0.703125C9.13949 0.703125 9.67154 0.932438 10.0713 1.34878C10.2409 1.52522 10.379 1.72748 10.4819 1.94995C10.4826 1.9515 10.4834 1.95305 10.4841 1.95464L10.4889 1.96481C10.5779 2.15775 10.7302 2.19431 10.8426 2.19005L12.103 2.18981V4.27955H5.04368V2.18981ZM1.02473 21.9064C0.844459 21.9064 0.697817 21.7537 0.697817 21.566V2.92692C0.697817 2.73923 0.844459 2.58652 1.02473 2.58652H4.36833V3.74306H2.36405C2.0578 3.74306 1.80864 4.00247 1.80864 4.32136V13.0834C1.80864 13.2776 1.95983 13.4349 2.14632 13.4349C2.33281 13.4349 2.484 13.2776 2.484 13.0834V4.44623H4.37193C4.40349 4.74745 4.64959 4.98267 4.94778 4.98267H12.2002C12.4977 4.98267 12.7433 4.74745 12.7748 4.44623H14.664V14.7182C14.6155 14.7165 14.5669 14.7154 14.5181 14.7154C12.0591 14.7154 10.0586 16.7977 10.0586 19.357C10.0586 19.5914 10.0755 19.8216 10.1079 20.0467H2.484V14.694C2.484 14.4998 2.33281 14.3424 2.14632 14.3424C1.95983 14.3424 1.80864 14.4998 1.80864 14.694V20.1716C1.80864 20.4904 2.0578 20.7498 2.36405 20.7498H10.2636C10.3888 21.1632 10.5681 21.5516 10.7929 21.9064H1.02473ZM14.5181 23.2969C12.4315 23.2969 10.7339 21.5295 10.7339 19.357C10.7339 17.1853 12.4315 15.4185 14.5181 15.4185C16.6046 15.4185 18.3022 17.1853 18.3022 19.357C18.3022 21.5295 16.6046 23.2969 14.5181 23.2969Z" fill="black"/>
</svg>
