<svg width="35" height="35" viewBox="0 0 35 35" fill="none" xmlns="http://www.w3.org/2000/svg">
<path d="M20.505 2.5814C20.505 2.73142 20.4923 2.87907 20.4677 3.02195C19.6731 2.73698 18.8166 2.5814 17.9244 2.5814C17.0322 2.5814 16.1757 2.73698 15.3811 3.02195C15.3565 2.87907 15.3438 2.73142 15.3438 2.5814C15.3438 1.15575 16.4988 0 17.9244 0C19.3501 0 20.505 1.15575 20.505 2.5814Z" fill="#2ABCCD"/>
<path opacity="0.2" d="M20.505 2.58145C20.505 2.73148 20.4923 2.87912 20.4677 3.022C19.6731 2.73703 18.8166 2.58145 17.9244 2.58145C17.0322 2.58145 16.1757 2.73703 15.3811 3.022C15.3565 2.87912 15.3438 2.73148 15.3438 2.58145C15.3438 2.40444 15.3613 2.23139 15.3954 2.06469C16.186 1.7829 17.0378 1.62891 17.9244 1.62891C18.8111 1.62891 19.6628 1.7829 20.4534 2.06469C20.4875 2.23139 20.505 2.40444 20.505 2.58145Z" fill="black"/>
<path d="M12.4679 29.1826H23.3809C23.3809 32.1958 20.9376 34.6391 17.9244 34.6391C14.9112 34.6391 12.4679 32.1958 12.4679 29.1826Z" fill="#303C44"/>
<path opacity="0.2" d="M23.3804 29.1826C23.3804 32.1958 20.9372 34.6391 17.9239 34.6391C17.4199 34.6391 16.9309 34.5708 16.4673 34.4422C18.7733 33.8048 20.4672 31.6918 20.4672 29.1826H23.3804Z" fill="black"/>
<path d="M20.4675 3.02209C23.3736 4.06513 25.4517 6.84417 25.4517 10.1082V21.7967C25.4517 23.7201 27.0107 25.2791 28.9341 25.2791V29.1829H23.3807H12.4678H6.91443V25.2791C8.83777 25.2791 10.3968 23.7201 10.3968 21.7967V10.1082C10.3968 6.84417 12.4749 4.06513 15.381 3.02209C16.1755 2.73712 17.032 2.58154 17.9242 2.58154C18.8165 2.58154 19.673 2.73712 20.4675 3.02209Z" fill="#2AD3E7"/>
<path opacity="0.2" d="M28.9337 25.2791V29.1829H27.1342V25.2791C25.2108 25.2791 23.6518 23.7201 23.6518 21.7967V10.1082C23.6518 6.84417 21.5737 4.06513 18.6677 3.02209C18.1446 2.83476 17.5937 2.70299 17.0245 2.63473C17.3198 2.5998 17.6199 2.58154 17.9239 2.58154C18.8161 2.58154 19.6726 2.73712 20.4672 3.02209C23.3732 4.06513 25.4513 6.84417 25.4513 10.1082V21.7967C25.4513 23.7201 27.0103 25.2791 28.9337 25.2791Z" fill="black"/>
<path d="M5.63101 22.0363C5.48853 22.0363 5.3589 21.9396 5.3231 21.7951C4.68847 19.2356 4.36674 16.5895 4.36674 13.93C4.36674 9.81457 5.12434 5.80301 6.61856 2.00697C6.68286 1.84377 6.8671 1.76359 7.0303 1.82781C7.1935 1.89203 7.27367 2.07643 7.20946 2.23955C5.74452 5.96122 5.00177 9.89443 5.00177 13.93C5.00177 16.5379 5.31723 19.1328 5.93948 21.6422C5.98171 21.8125 5.87796 21.9846 5.70769 22.0269C5.68205 22.0332 5.65633 22.0363 5.63101 22.0363Z" fill="#2AD3E7"/>
<path d="M2.11238 22.0362C1.96989 22.0362 1.84027 21.9395 1.80447 21.795C1.16984 19.2356 0.848114 16.5894 0.848114 13.93C0.848114 9.81443 1.6057 5.80295 3.09993 2.0069C3.16431 1.8437 3.34862 1.76369 3.51175 1.82775C3.67487 1.89196 3.75512 2.07636 3.6909 2.23956C2.22589 5.96115 1.48314 9.89436 1.48314 13.93C1.48314 16.5379 1.79859 19.1327 2.42084 21.6422C2.46307 21.8124 2.35933 21.9845 2.18906 22.0268C2.16342 22.0332 2.13762 22.0362 2.11238 22.0362Z" fill="#2AD3E7"/>
<path d="M30.2168 22.0363C30.1915 22.0363 30.1657 22.0332 30.1401 22.0269C29.9699 21.9847 29.8662 21.8125 29.9083 21.6422C30.5305 19.1328 30.846 16.5381 30.846 13.93C30.846 9.8945 30.1033 5.96121 28.6383 2.23954C28.574 2.07642 28.6543 1.89202 28.8175 1.8278C28.9805 1.76358 29.165 1.84384 29.2292 2.00696C30.7235 5.80301 31.4811 9.81449 31.4811 13.93C31.4811 16.5895 31.1593 19.2357 30.5248 21.7951C30.4889 21.9396 30.3593 22.0363 30.2168 22.0363Z" fill="#2AD3E7"/>
<path d="M33.7354 22.0363C33.7101 22.0363 33.6843 22.0332 33.6587 22.0269C33.4885 21.9847 33.3848 21.8125 33.4269 21.6422C34.0491 19.1328 34.3646 16.5381 34.3646 13.93C34.3646 9.8945 33.6219 5.96121 32.1569 2.23954C32.0927 2.07642 32.1729 1.89202 32.3361 1.8278C32.4991 1.76358 32.6836 1.84384 32.7478 2.00696C34.2421 5.80301 34.9996 9.81449 34.9996 13.93C34.9996 16.5895 34.6778 19.2357 34.0434 21.7951C34.0075 21.9396 33.8779 22.0363 33.7354 22.0363Z" fill="#2AD3E7"/>
<path opacity="0.2" d="M14.7921 8.62768L12.4675 6.88135L11.8935 16.4691C11.8935 16.4691 11.6405 21.6442 14.7921 23.4896C14.7921 23.4896 13.5192 20.849 14.7921 8.62768Z" fill="white"/>
</svg>
