<svg width="46" height="44" viewBox="0 0 46 44" fill="none" xmlns="http://www.w3.org/2000/svg">
<path d="M39.5221 0H11.8133C10.1575 0.00257163 8.57031 0.66181 7.39994 1.8331C6.22956 3.00439 5.57155 4.59208 5.57027 6.24789V31.5503C3.97964 31.7227 2.51592 32.4992 1.48123 33.7196C0.44654 34.9399 -0.0801404 36.5109 0.00990257 38.1083C0.0999456 39.7057 0.799839 41.2076 1.96512 42.3039C3.13039 43.4003 4.67211 44.0074 6.27203 43.9999H28.8548C30.5097 43.9974 32.0962 43.3388 33.2664 42.1686C34.4367 40.9983 35.0952 39.4119 35.0978 37.7569V12.4885H39.5318C41.1879 12.4885 42.7761 11.8306 43.9472 10.6596C45.1182 9.48858 45.7761 7.90033 45.7761 6.24425C45.7761 4.58817 45.1182 2.99992 43.9472 1.8289C42.7761 0.657874 41.1879 3.48992e-08 39.5318 0H39.5221ZM24.4208 42.1545H6.27203C5.10476 42.1545 3.9853 41.6908 3.15991 40.8654C2.33452 40.04 1.87083 38.9205 1.87083 37.7533C1.87083 36.586 2.33452 35.4665 3.15991 34.6411C3.9853 33.8157 5.10476 33.352 6.27203 33.352H24.4208C23.2557 34.5205 22.6015 36.1032 22.6015 37.7533C22.6015 39.4033 23.2557 40.986 24.4208 42.1545ZM33.2523 6.24789V37.7569C33.2523 38.6267 32.9944 39.4769 32.5112 40.2001C32.028 40.9232 31.3412 41.4869 30.5377 41.8197C29.7341 42.1526 28.8499 42.2396 27.9969 42.07C27.1438 41.9003 26.3602 41.4815 25.7452 40.8664C25.1302 40.2514 24.7114 39.4679 24.5417 38.6148C24.372 37.7618 24.4591 36.8776 24.792 36.074C25.1248 35.2705 25.6884 34.5837 26.4116 34.1005C27.1348 33.6172 27.985 33.3593 28.8548 33.3593C29.0998 33.3593 29.3348 33.262 29.5081 33.0887C29.6814 32.9154 29.7787 32.6804 29.7787 32.4354C29.7787 32.1903 29.6814 31.9553 29.5081 31.7821C29.3348 31.6088 29.0998 31.5114 28.8548 31.5114H7.45459V6.24789C7.45648 5.08678 7.91674 3.97338 8.73526 3.14985C9.55379 2.32632 10.6644 1.85929 11.8254 1.85033H35.0735C33.9078 3.01697 33.2528 4.59863 33.2523 6.24789ZM38.5945 10.6455H35.0978V9.13023H38.5994L38.5945 10.6455ZM40.4424 10.5532V8.1905C40.4424 8.06932 40.4185 7.94933 40.3722 7.83738C40.3258 7.72543 40.2578 7.62371 40.1721 7.53802C40.0865 7.45234 39.9847 7.38437 39.8728 7.338C39.7608 7.29163 39.6408 7.26776 39.5197 7.26776H35.0978V6.24789C35.0993 5.41898 35.3351 4.60736 35.7779 3.90663C36.2207 3.2059 36.8525 2.6446 37.6006 2.28743C38.3486 1.93027 39.1823 1.7918 40.0056 1.88798C40.829 1.98416 41.6083 2.31108 42.2539 2.83105C42.8994 3.35101 43.3849 4.04285 43.6543 4.82678C43.9236 5.61071 43.966 6.45481 43.7763 7.26175C43.5867 8.06869 43.1729 8.80561 42.5826 9.38754C41.9923 9.96947 41.2495 10.3727 40.44 10.5508L40.4424 10.5532Z" fill="#FA6400"/>
<path d="M26.9532 9.16162H13.4399C13.1949 9.16162 12.9599 9.25896 12.7866 9.43223C12.6133 9.60551 12.516 9.84053 12.516 10.0856C12.516 10.3306 12.6133 10.5656 12.7866 10.7389C12.9599 10.9122 13.1949 11.0095 13.4399 11.0095H26.9532C27.1982 11.0095 27.4332 10.9122 27.6065 10.7389C27.7798 10.5656 27.8771 10.3306 27.8771 10.0856C27.8771 9.84053 27.7798 9.60551 27.6065 9.43223C27.4332 9.25896 27.1982 9.16162 26.9532 9.16162Z" fill="#FA6400"/>
<path d="M26.9532 15.7568H13.4399C13.1949 15.7568 12.9599 15.8542 12.7866 16.0275C12.6133 16.2007 12.516 16.4358 12.516 16.6808C12.516 16.9259 12.6133 17.1609 12.7866 17.3341C12.9599 17.5074 13.1949 17.6047 13.4399 17.6047H26.9532C27.1982 17.6047 27.4332 17.5074 27.6065 17.3341C27.7798 17.1609 27.8771 16.9259 27.8771 16.6808C27.8771 16.4358 27.7798 16.2007 27.6065 16.0275C27.4332 15.8542 27.1982 15.7568 26.9532 15.7568Z" fill="#FA6400"/>
<path d="M26.9532 22.3521H13.4399C13.1949 22.3521 12.9599 22.4494 12.7866 22.6226C12.6133 22.7959 12.516 23.0309 12.516 23.276C12.516 23.521 12.6133 23.7561 12.7866 23.9293C12.9599 24.1026 13.1949 24.2 13.4399 24.2H26.9532C27.1982 24.2 27.4332 24.1026 27.6065 23.9293C27.7798 23.7561 27.8771 23.521 27.8771 23.276C27.8771 23.0309 27.7798 22.7959 27.6065 22.6226C27.4332 22.4494 27.1982 22.3521 26.9532 22.3521Z" fill="#FA6400"/>
</svg>
