<svg width="28" height="38" viewBox="0 0 28 38" fill="none" xmlns="http://www.w3.org/2000/svg">
<g clip-path="url(#clip0)">
<path d="M25.372 -1.79199H2.81981C0.710188 -1.79199 -1 -0.0818046 -1 2.02782V35.4951C-1 37.6047 0.710188 39.3149 2.81981 39.3149H25.372C27.4816 39.3149 29.1918 37.6047 29.1918 35.4951V2.02782C29.1918 -0.0818046 27.4816 -1.79199 25.372 -1.79199Z" fill="#31CAD0"/>
<path d="M2.00024 1.68555H26.5788V35.764H2.00024V1.68555Z" fill="white"/>
<path d="M13.8183 12.9236C16.0925 12.9236 17.9361 11.0809 17.9361 8.80774C17.9361 6.53462 16.0925 4.69189 13.8183 4.69189C11.5441 4.69189 9.70056 6.53462 9.70056 8.80774C9.70056 11.0809 11.5441 12.9236 13.8183 12.9236Z" fill="#31CAD0"/>
<path d="M15.9 8.01915H14.4542V6.6001H13.0084V8.01915H11.5626V9.4382H13.0084V10.8573H14.4542V9.4382H15.9V8.01915Z" fill="#F7FDFD"/>
<path d="M6.12512 18.7275H16.9696V20.1466H6.12512V18.7275Z" fill="#31CAD0"/>
<path d="M18.4158 18.7266H22.0312V20.1456H18.4158V18.7266Z" fill="#31CAD0"/>
<path d="M7.57068 25.8252H16.9693V27.2443H7.57068V25.8252Z" fill="#31CAD0"/>
<path d="M18.4158 25.8252H22.0312V27.2443H18.4158V25.8252Z" fill="#31CAD0"/>
<path d="M6.12524 22.2769H10.4626V23.6959H6.12524V22.2769Z" fill="#31CAD0"/>
<path d="M11.9081 22.2769H22.0306V23.6959H11.9081V22.2769Z" fill="#31CAD0"/>
<path d="M8.75684 29.3735H18.8793V30.7926H8.75684V29.3735Z" fill="#31CAD0"/>
</g>
<defs>
<clipPath id="clip0">
<rect width="28" height="38" rx="3" fill="white"/>
</clipPath>
</defs>
</svg>
