<svg width="48" height="48" viewBox="0 0 48 48" fill="none" xmlns="http://www.w3.org/2000/svg">
<path fill-rule="evenodd" clip-rule="evenodd" d="M43.4945 38.1098C43.7114 38.0638 43.9353 38.0613 44.1532 38.1022C44.3711 38.1432 44.5786 38.2269 44.764 38.3485C44.9494 38.4701 45.109 38.6272 45.2334 38.8107C45.3578 38.9942 45.4446 39.2006 45.4888 39.4178C45.6459 40.1638 45.6346 40.9355 45.4557 41.6766C45.2769 42.4177 44.935 43.1096 44.455 43.7018C43.9749 44.2941 43.3688 44.7718 42.6807 45.1002C41.9927 45.4286 41.2401 45.5994 40.4778 45.6002H7.52083C6.75845 45.5994 6.00587 45.4286 5.31785 45.1002C4.62983 44.7718 4.02369 44.2941 3.54363 43.7018C3.06358 43.1096 2.72173 42.4177 2.54285 41.6766C2.36398 40.9355 2.3527 40.1638 2.50975 39.4178C3.29851 35.6487 5.06519 32.1535 7.63245 29.2833C10.1997 26.4131 13.4771 24.2691 17.1353 23.0666C15.2046 21.6241 13.777 19.6103 13.0552 17.3108C12.3333 15.0114 12.3539 12.543 13.1139 10.2559C13.8739 7.96874 15.3349 5.97901 17.2894 4.5689C19.2439 3.15878 21.5929 2.3999 24.003 2.3999C26.4131 2.3999 28.762 3.15878 30.7165 4.5689C32.671 5.97901 34.1319 7.96874 34.8919 10.2559C35.6519 12.543 35.6724 15.0114 34.9506 17.3108C34.2288 19.6103 32.8012 21.6241 30.8704 23.0666C35.5193 24.5973 39.5228 27.6385 42.2441 31.7066C42.3675 31.8907 42.4533 32.0972 42.4969 32.3145C42.5405 32.5318 42.5408 32.7555 42.4979 32.9729C42.455 33.1903 42.3698 33.3971 42.247 33.5815C42.1242 33.766 41.9661 33.9244 41.7821 34.0478C41.598 34.1712 41.3914 34.2571 41.1742 34.3007C40.9569 34.3442 40.7332 34.3446 40.5158 34.3017C40.2984 34.2588 40.0916 34.1735 39.9072 34.0506C39.7228 33.9278 39.5643 33.7698 39.4409 33.5858C37.7854 31.1112 35.5591 29.071 32.9498 27.637C30.3405 26.2031 27.4246 25.4175 24.4481 25.3466C24.2993 25.3466 24.1505 25.3466 23.9993 25.3466C23.8481 25.3466 23.7017 25.3466 23.5505 25.3466C19.3656 25.4594 15.3404 26.977 12.1228 29.6552C8.90517 32.3334 6.68233 36.0165 5.81209 40.1114C5.75818 40.3686 5.76224 40.6344 5.8241 40.8898C5.88596 41.1451 6.00404 41.3835 6.16966 41.5874C6.33192 41.7894 6.53774 41.9522 6.77171 42.0635C7.00567 42.1749 7.26171 42.2321 7.52083 42.2306H40.4778C40.737 42.2326 40.9931 42.1757 41.2272 42.0643C41.4612 41.9529 41.667 41.7898 41.8289 41.5874C41.9944 41.3834 42.1123 41.145 42.1742 40.8897C42.2361 40.6344 42.2402 40.3686 42.1865 40.1114C42.1395 39.894 42.1361 39.6694 42.1765 39.4507C42.217 39.232 42.3005 39.0234 42.4222 38.8372C42.5439 38.651 42.7013 38.4909 42.8854 38.366C43.0695 38.2411 43.2765 38.154 43.4945 38.1098ZM23.9993 5.77461C21.884 5.77095 19.8511 6.59496 18.3353 8.07046C16.8196 9.54596 15.9412 11.5559 15.8879 13.6706C15.8346 15.7852 16.6106 17.8368 18.0501 19.3868C19.4897 20.9368 21.4785 21.8621 23.5913 21.965C23.7257 21.965 23.8649 21.965 23.9993 21.965C24.1337 21.965 24.2729 21.965 24.4097 21.965C26.5228 21.8621 28.5117 20.9366 29.9512 19.3864C31.3908 17.8361 32.1668 15.7842 32.1132 13.6693C32.0596 11.5544 31.1807 9.54445 29.6644 8.06914C28.1482 6.59383 26.1149 5.7703 23.9993 5.77461Z" fill="#5AD1DD"/>
</svg>
