<svg width="30" height="44" viewBox="0 0 30 44" fill="none" xmlns="http://www.w3.org/2000/svg">
<path d="M23.325 14.9875C23.325 13.4229 22.8611 11.8936 21.9919 10.5927C21.1227 9.29188 19.8873 8.278 18.4418 7.67929C16.9964 7.08057 15.4059 6.92393 13.8715 7.22915C12.337 7.53437 10.9276 8.28774 9.82128 9.39402C8.715 10.5003 7.96161 11.9098 7.65639 13.4442C7.35117 14.9787 7.50783 16.5692 8.10654 18.0146C8.70526 19.46 9.71914 20.6954 11.02 21.5646C12.3208 22.4338 13.8502 22.8977 15.4147 22.8977C17.512 22.8957 19.5228 22.0616 21.0058 20.5786C22.4889 19.0956 23.3229 17.0848 23.325 14.9875ZM10.9836 16.256V13.7189H14.1481V10.5563H16.6833V13.7209H19.8478V16.256H16.6833V19.4205H14.1481V16.254L10.9836 16.256Z" fill="#72D1F7"/>
<path d="M30.0001 14.9497C30.0001 11.0817 28.4635 7.37206 25.7283 4.63693C22.9932 1.90181 19.2836 0.365234 15.4156 0.365234C11.5475 0.365234 7.83788 1.90181 5.10276 4.63693C2.36763 7.37206 0.831055 11.0817 0.831055 14.9497C0.831055 24.1463 12.3071 34.1669 15.4146 36.7119C18.5221 34.1689 29.9981 24.1483 29.9981 14.9497H30.0001ZM4.97109 14.9851C4.97109 12.9192 5.5837 10.8997 6.73147 9.18195C7.87923 7.4642 9.51058 6.12538 11.4192 5.33479C13.3279 4.5442 15.4281 4.33735 17.4543 4.74039C19.4806 5.14343 21.3418 6.13826 22.8026 7.59908C24.2634 9.05991 25.2583 10.9211 25.6613 12.9473C26.0643 14.9735 25.8575 17.0738 25.0669 18.9824C24.2763 20.8911 22.9375 22.5224 21.2197 23.6702C19.502 24.818 17.4825 25.4306 15.4165 25.4306C12.6472 25.4275 9.99216 24.326 8.03393 22.3677C6.0757 20.4095 4.97421 17.7545 4.97109 14.9851Z" fill="#72D1F7"/>
<path d="M26.7841 37.2333C25.8943 36.7482 24.941 36.3901 23.9519 36.1692C22.8321 35.8978 21.6964 35.6968 20.5514 35.5674C18.1343 37.8508 16.2934 39.257 16.1813 39.3416L15.4142 39.9317L14.6472 39.3416C14.5351 39.257 12.6942 37.8508 10.2771 35.5674C9.1321 35.6969 7.99638 35.8979 6.87654 36.1692C5.88749 36.3901 4.9342 36.7482 4.0444 37.2333C3.5925 37.404 3.20332 37.7082 2.92865 38.1056C2.65397 38.503 2.50684 38.9746 2.50684 39.4576C2.50684 39.9407 2.65397 40.4123 2.92865 40.8097C3.20332 41.2071 3.5925 41.5114 4.0444 41.6821C4.93418 42.1671 5.88748 42.5253 6.87654 42.7461C12.5065 43.9329 18.322 43.9329 23.9519 42.7461C24.941 42.5253 25.8943 42.1671 26.7841 41.6821C27.236 41.5114 27.6252 41.2071 27.8998 40.8097C28.1745 40.4123 28.3216 39.9407 28.3216 39.4576C28.3216 38.9746 28.1745 38.503 27.8998 38.1056C27.6252 37.7082 27.236 37.404 26.7841 37.2333Z" fill="#72D1F7"/>
</svg>
