<svg width="24" height="24" viewBox="0 0 24 24" fill="none" xmlns="http://www.w3.org/2000/svg">
<path fill-rule="evenodd" clip-rule="evenodd" d="M15.7998 14.0508L21.6769 20.0438C21.8834 20.2634 21.9973 20.5542 21.9947 20.8556C21.9921 21.157 21.8732 21.4458 21.6629 21.6618C21.56 21.7675 21.4372 21.8518 21.3016 21.9098C21.166 21.9677 21.0203 21.9983 20.8728 21.9996C20.7253 22.0009 20.579 21.9729 20.4424 21.9174C20.3058 21.8618 20.1816 21.7797 20.0769 21.6758L14.2439 15.7288L14.2658 15.7058C12.7821 16.9244 10.885 17.5225 8.97061 17.3753C7.05627 17.2281 5.2728 16.3469 3.99283 14.9158C2.69524 13.4701 1.98307 11.5926 1.99527 9.65003C2.00748 7.70743 2.74322 5.83911 4.05887 4.4098C5.35738 2.99564 7.15203 2.13785 9.06803 2.0156C10.984 1.89336 12.8732 2.51612 14.3409 3.75379C15.8222 5.01005 16.7816 6.77383 17.0313 8.70005C17.281 10.6263 16.803 12.5764 15.6908 14.1688L15.7998 14.0508ZM3.89987 9.69981C3.92154 10.8146 4.27185 11.8981 4.90695 12.8145C5.54206 13.7308 6.43363 14.4393 7.46982 14.8509C8.50601 15.2625 9.64073 15.359 10.7315 15.1282C11.8223 14.8974 12.8207 14.3497 13.6014 13.5537C14.3821 12.7577 14.9104 11.7488 15.1199 10.6538C15.3295 9.55867 15.2109 8.42608 14.7793 7.39808C14.3476 6.37008 13.622 5.49244 12.6935 4.87525C11.7649 4.25806 10.6748 3.9288 9.55985 3.92878C8.04411 3.94383 6.59639 4.56023 5.53501 5.64244C4.47362 6.72464 3.88548 8.18406 3.89987 9.69981Z" fill="#5AD1DD"/>
</svg>
