<svg width="18" height="14" viewBox="0 0 18 14" fill="none" xmlns="http://www.w3.org/2000/svg">
<path d="M18 1.66499C17.3306 1.9457 16.6174 2.13177 15.8737 2.22211C16.6388 1.78545 17.2226 1.09927 17.4971 0.272193C16.7839 0.678739 15.9964 0.965904 15.1571 1.12616C14.4799 0.436748 13.5146 0.00976562 12.4616 0.00976562C10.4186 0.00976562 8.77387 1.59508 8.77387 3.53855C8.77387 3.81818 8.79862 4.08706 8.85938 4.34304C5.7915 4.19999 3.07687 2.79429 1.25325 0.652927C0.934875 1.18101 0.748125 1.78545 0.748125 2.43614C0.748125 3.65793 1.40625 4.74098 2.38725 5.36801C1.79437 5.35725 1.21275 5.1927 0.72 4.9335C0.72 4.94425 0.72 4.95824 0.72 4.97222C0.72 6.6866 1.99912 8.11059 3.6765 8.43862C3.37612 8.51713 3.04875 8.55478 2.709 8.55478C2.47275 8.55478 2.23425 8.54187 2.01038 8.49455C2.4885 9.89165 3.84525 10.9188 5.4585 10.9521C4.203 11.891 2.60888 12.4568 0.883125 12.4568C0.5805 12.4568 0.29025 12.4439 0 12.4084C1.63462 13.4161 3.57188 13.9915 5.661 13.9915C12.4515 13.9915 16.164 8.61393 16.164 3.95262C16.164 3.79667 16.1584 3.6461 16.1505 3.4966C16.8829 2.99971 17.4982 2.37914 18 1.66499Z" fill="#1F1F1F"/>
</svg>
