<svg width="20" height="13" viewBox="0 0 20 13" fill="none" xmlns="http://www.w3.org/2000/svg">
<path d="M19.4874 5.869C19.3124 5.629 15.1374 0 9.80644 0C4.47544 0 0.300442 5.633 0.124442 5.869C0.0435774 5.97976 0 6.11335 0 6.2505C0 6.38764 0.0435774 6.52123 0.124442 6.632C0.299442 6.872 4.47444 12.501 9.80544 12.501C15.1364 12.501 19.3114 6.872 19.4864 6.633C19.5678 6.52231 19.6118 6.38855 19.612 6.25116C19.6122 6.11377 19.5685 5.9799 19.4874 5.869ZM9.80644 11.207C5.87944 11.207 2.47744 7.471 1.47044 6.25C2.47644 5.028 5.87044 1.294 9.80644 1.294C13.7424 1.294 17.1344 5.029 18.1424 6.251C17.1364 7.477 13.7424 11.211 9.80644 11.211V11.207Z" fill="#5AD1DD"/>
<path d="M9.8054 2.375C9.03821 2.375 8.28824 2.60249 7.65034 3.02872C7.01244 3.45495 6.51525 4.06077 6.22166 4.76956C5.92807 5.47836 5.85126 6.25829 6.00093 7.01074C6.1506 7.76319 6.52004 8.45437 7.06253 8.99686C7.60502 9.53934 8.29619 9.90878 9.04864 10.0585C9.80109 10.2081 10.581 10.1313 11.2898 9.83772C11.9986 9.54413 12.6044 9.04696 13.0307 8.40906C13.4569 7.77116 13.6844 7.02119 13.6844 6.254C13.6831 5.22563 13.274 4.23976 12.5468 3.51259C11.8196 2.78542 10.8338 2.37632 9.8054 2.375ZM9.8054 8.84C9.29394 8.84 8.79396 8.68833 8.3687 8.40417C7.94343 8.12002 7.61197 7.71614 7.41624 7.24361C7.22051 6.77108 7.1693 6.25113 7.26909 5.7495C7.36887 5.24786 7.61516 4.78707 7.97682 4.42542C8.33848 4.06376 8.79925 3.81746 9.30089 3.71768C9.80252 3.6179 10.3225 3.66911 10.795 3.86484C11.2675 4.06057 11.6714 4.39203 11.9556 4.81729C12.2397 5.24256 12.3914 5.74254 12.3914 6.254C12.3906 6.9396 12.1179 7.5969 11.6331 8.0817C11.1483 8.56649 10.491 8.8392 9.8054 8.84Z" fill="#5AD1DD"/>
</svg>
